<svg id="print" xmlns="http://www.w3.org/2000/svg" viewBox="0 0 66.85 61.71"><defs><style>.cls-1{fill:#454546;}</style></defs><path class="cls-1" d="M66.85,50.14a1.33,1.33,0,0,1-1.28,1.29h-9v6.42a3.86,3.86,0,0,1-3.86,3.86H14.14a3.85,3.85,0,0,1-3.85-3.86V51.43h-9A1.33,1.33,0,0,1,0,50.14V33.43a7.77,7.77,0,0,1,7.71-7.72h2.58V3.86A3.85,3.85,0,0,1,14.14,0h27a10.69,10.69,0,0,1,6.59,2.73l6.11,6.11a10.69,10.69,0,0,1,2.73,6.59V25.71h2.57a7.77,7.77,0,0,1,7.71,7.72ZM51.43,30.86V15.43H45a3.86,3.86,0,0,1-3.86-3.86V5.14H15.43V30.86Zm0,25.71V46.28h-36V56.57Zm7.71-25.71a2.57,2.57,0,1,0,2.57,2.57A2.58,2.58,0,0,0,59.14,30.86Z"/></svg>