<svg id="Layer_1" data-name="Layer 1" xmlns="http://www.w3.org/2000/svg" viewBox="0 0 245 50"><defs><style>.cls-1{fill:#ff6b00;}.cls-2{fill:#002e6d;}</style></defs><path class="cls-1" d="M21.66,7.75h-15A6.64,6.64,0,0,0,0,14.4V35.6a6.64,6.64,0,0,0,6.64,6.65H21.92a17.25,17.25,0,1,0-.26-34.5Zm0,30.86H7.57a3.93,3.93,0,0,1-3.93-3.93V15.32a3.93,3.93,0,0,1,3.93-3.93H21.92a13.62,13.62,0,0,1,13.6,13.87A13.76,13.76,0,0,1,21.69,38.61Z"/><path class="cls-1" d="M21.23,15.32H9.08a1.81,1.81,0,0,0-1.81,1.82h0A1.81,1.81,0,0,0,9.09,19H21.26a6.14,6.14,0,0,1,6.19,5.81,6,6,0,0,1-6,6.27H9.09a1.81,1.81,0,0,0-1.82,1.82h0a1.81,1.81,0,0,0,1.81,1.82H21.41a9.69,9.69,0,0,0,9.68-9.91A9.79,9.79,0,0,0,21.23,15.32Z"/><rect class="cls-1" x="7.47" y="23.18" width="11.63" height="3.64" rx="1.82"/><path class="cls-2" d="M47.51,16.79a.49.49,0,0,1,.49-.48H58.57a.49.49,0,0,1,.49.48v2.79a.49.49,0,0,1-.49.48H51.5v3.17h5.82a.5.5,0,0,1,.49.49V26.5a.48.48,0,0,1-.49.48H51.5v3.45h7.07a.49.49,0,0,1,.49.49V33.7a.49.49,0,0,1-.49.49H48a.49.49,0,0,1-.49-.49Z"/><path class="cls-2" d="M60.71,33.52l8-17.18a.5.5,0,0,1,.43-.29h.25a.53.53,0,0,1,.44.29l8,17.18a.45.45,0,0,1-.43.67H74.55c-.46,0-.66-.16-.89-.64l-.92-2H65.79l-.92,2a.93.93,0,0,1-.91.62H61.15A.46.46,0,0,1,60.71,33.52Zm10.5-5.46-1.94-4.22h0l-1.91,4.22Z"/><path class="cls-2" d="M79.27,31.76l1.2-2.12a.66.66,0,0,1,.87-.15A7.64,7.64,0,0,0,85,30.89a1.6,1.6,0,0,0,1.76-1.53c0-1.07-.89-1.89-2.63-2.58-2.2-.87-5-2.58-5-5.64,0-2.53,2-5.09,5.9-5.09A9.53,9.53,0,0,1,90.51,18c.31.18.25.64.15.82l-1.3,2c-.18.28-.64.51-.87.34s-2.09-1.54-3.65-1.54a1.49,1.49,0,0,0-1.61,1.31c0,.94.77,1.66,2.78,2.47s5.16,2.35,5.16,5.83c0,2.63-2.27,5.28-6,5.28a8.17,8.17,0,0,1-5.75-2C79.14,32.22,79.07,32.12,79.27,31.76Z"/><path class="cls-2" d="M97.81,25.58l-5.64-8.53a.47.47,0,0,1,.41-.74H95.9a.53.53,0,0,1,.41.23l3.55,5.23,3.55-5.23a.45.45,0,0,1,.4-.23h3.32a.47.47,0,0,1,.41.74l-5.72,8.5V33.7a.5.5,0,0,1-.48.49h-3a.49.49,0,0,1-.49-.49Z"/><path class="cls-2" d="M115.75,16.79a.48.48,0,0,1,.46-.48h6.23a8.94,8.94,0,1,1,0,17.88h-6.23a.48.48,0,0,1-.46-.49Zm6.43,13.62a5,5,0,0,0,5-5.19,5,5,0,0,0-5-5.16h-2.45V30.41Z"/><path class="cls-2" d="M136.84,25.58l-5.65-8.53a.47.47,0,0,1,.41-.74h3.32a.53.53,0,0,1,.41.23l3.55,5.23,3.55-5.23a.48.48,0,0,1,.41-.23h3.32a.47.47,0,0,1,.41.74l-5.72,8.5V33.7a.5.5,0,0,1-.49.49h-3a.48.48,0,0,1-.48-.49Z"/><path class="cls-2" d="M148.67,16.51a.49.49,0,0,1,.49-.46h.64L160,25.86h0V16.79a.49.49,0,0,1,.49-.48h3.06a.5.5,0,0,1,.49.48V34a.48.48,0,0,1-.49.46h-.41a.77.77,0,0,1-.33-.12L152.73,24.18h0V33.7a.49.49,0,0,1-.49.49h-3a.5.5,0,0,1-.48-.49Z"/><path class="cls-2" d="M166.19,33.52l8-17.18a.5.5,0,0,1,.43-.29h.26a.52.52,0,0,1,.43.29l8,17.18a.45.45,0,0,1-.43.67H180c-.46,0-.66-.16-.89-.64l-.92-2h-6.95l-.92,2a.94.94,0,0,1-.92.62h-2.8A.46.46,0,0,1,166.19,33.52Zm10.5-5.46-1.94-4.22h0l-1.91,4.22Z"/><path class="cls-2" d="M187.77,16.46a.48.48,0,0,1,.45-.41h.41a.59.59,0,0,1,.44.26l5.92,11h0l5.93-11a.59.59,0,0,1,.43-.26h.41a.48.48,0,0,1,.46.41l2.89,17.17a.47.47,0,0,1-.49.56h-3a.54.54,0,0,1-.49-.41L200,25.89H200l-4.29,8.27a.56.56,0,0,1-.43.28h-.46a.54.54,0,0,1-.44-.28L190,25.89h0l-1.13,7.89a.5.5,0,0,1-.48.41h-3a.47.47,0,0,1-.48-.56Z"/><path class="cls-2" d="M208.34,16.79a.5.5,0,0,1,.49-.48h3.06a.5.5,0,0,1,.49.48V33.7a.5.5,0,0,1-.49.49h-3.06a.5.5,0,0,1-.49-.49Z"/><path class="cls-2" d="M224.67,16.05a8.61,8.61,0,0,1,6.18,2.38.47.47,0,0,1,0,.71l-2,2.07a.43.43,0,0,1-.63,0,5.25,5.25,0,0,0-3.45-1.3,5.09,5.09,0,0,0-5,5.26,5.06,5.06,0,0,0,5,5.19,5.44,5.44,0,0,0,3.43-1.23.5.5,0,0,1,.66,0l2,2.12a.51.51,0,0,1,0,.69,8.8,8.8,0,0,1-6.21,2.47,9.2,9.2,0,1,1,0-18.39Z"/><path class="cls-2" d="M233.1,31.76l1.2-2.12a.66.66,0,0,1,.87-.15,7.64,7.64,0,0,0,3.62,1.4,1.6,1.6,0,0,0,1.77-1.53c0-1.07-.9-1.89-2.63-2.58-2.2-.87-5-2.58-5-5.64,0-2.53,2-5.09,5.9-5.09A9.53,9.53,0,0,1,244.34,18a.66.66,0,0,1,.15.82l-1.3,2c-.18.28-.64.51-.87.34s-2.1-1.54-3.65-1.54a1.49,1.49,0,0,0-1.61,1.31c0,.94.76,1.66,2.78,2.47S245,25.68,245,29.16c0,2.63-2.27,5.28-6,5.28a8.11,8.11,0,0,1-5.74-2C233,32.22,232.89,32.12,233.1,31.76Z"/></svg>