<svg id="Layer_1" data-name="Layer 1" xmlns="http://www.w3.org/2000/svg" viewBox="0 0 98.2 129.85"><g id="QVE6YV.tif"><path d="M80.68,43.47c2.08,0,4.06-.09,6,0,6.15.36,11.28,4.94,11.34,11.07q.3,32.16,0,64.33c-.06,6.19-5.16,10.84-11.46,10.87q-37.44.18-74.88,0C5.12,129.73.2,125,.14,118.47q-.29-31.92,0-63.84c0-6.14,5-10.74,11.24-11.13,2-.12,4,0,6.86,0,0-4.47-.05-8.71,0-12.94C18.43,14.23,30,1.59,47.25.11,59.58-.95,73.87,5.46,78.49,22.59,80.23,29,80,36,80.68,43.47ZM68,43.16c0-5.11.44-9.93-.1-14.64A18.18,18.18,0,0,0,55.78,12.86c-7.24-2.74-13.9-1.24-19.78,4.08-8.19,7.43-5.5,16.92-5.81,26.22ZM37,86.21C36.9,93.27,42,98.67,48.89,98.76a12.2,12.2,0,0,0,.64-24.38A11.92,11.92,0,0,0,37,86.21Z"/></g></svg>